<svg width="17" height="16" viewBox="0 0 17 16" fill="none" xmlns="http://www.w3.org/2000/svg">
<path fill-rule="evenodd" clip-rule="evenodd" d="M7.38463 0.354988C7.3496 0.36707 7.20624 0.416158 7.06605 0.464026C6.48214 0.66352 5.75125 1.21492 5.6044 1.56679C5.56436 1.66274 5.53693 1.79031 5.54347 1.8503C5.56959 2.08994 5.67152 2.18686 6.82132 3.06525C7.42919 3.52963 7.94595 3.94673 7.96969 3.99211C8.0335 4.11419 8.04997 4.36486 8.00187 4.48255C7.97869 4.53929 6.35711 6.43163 4.39838 8.68775C2.14606 11.282 0.803946 12.8526 0.747085 12.9607C0.697621 13.0547 0.629173 13.2355 0.59498 13.3624C0.54209 13.5585 0.537939 13.6459 0.567069 13.9448C0.609342 14.3783 0.717294 14.6335 0.988556 14.9415C1.41926 15.4305 2.01018 15.6508 2.6995 15.5793C3.05712 15.5423 3.26748 15.4726 3.58792 15.285C3.81384 15.1527 3.92267 15.032 7.02296 11.4755C9.96733 8.0977 10.2362 7.79837 10.3678 7.75116C10.7739 7.60555 11.2041 7.8586 11.2445 8.26675C11.2597 8.42059 11.243 8.46619 11.0452 8.81174C10.9685 8.94591 10.9572 8.99839 10.9727 9.14952C10.9833 9.25396 11.0172 9.36695 11.0539 9.42088C11.1403 9.54766 12.2073 10.3662 12.3574 10.4209C12.5343 10.4853 12.6954 10.4889 12.8547 10.432C12.9813 10.3868 13.166 10.1858 14.7614 8.35783C15.9596 6.98488 16.5435 6.29243 16.5765 6.20525C16.6382 6.04205 16.6202 5.86428 16.527 5.71612C16.4816 5.64395 16.2192 5.42418 15.8335 5.13522C15.2596 4.70535 15.2001 4.66894 15.0418 4.65044C14.8217 4.6247 14.6612 4.68073 14.4688 4.85038C14.2051 5.08298 13.9932 5.14449 13.7363 5.06303C13.4277 4.96512 13.2511 4.69418 13.3017 4.39604C13.3165 4.30915 13.37 4.18589 13.4237 4.11554C13.6053 3.87711 13.6276 3.62449 13.4867 3.40201C13.3917 3.25205 10.0735 0.735798 9.80117 0.607207C9.49361 0.461994 9.13828 0.347802 8.82216 0.292606C8.56414 0.247554 8.4594 0.24685 7.98772 0.287057C7.69106 0.312338 7.41967 0.342907 7.38463 0.354988ZM8.69923 1.52818C8.81469 1.55379 9.00703 1.62077 9.12666 1.67699C9.41208 1.81122 12.0876 3.83343 12.0707 3.90221C11.9514 4.38966 11.9597 4.80909 12.0953 5.14778C12.47 6.08352 13.636 6.57226 14.6114 6.20243C14.9549 6.07218 15.009 6.05936 15.0138 6.10707C15.0162 6.13006 14.4608 6.78929 13.7796 7.57198C12.4542 9.09501 12.4053 9.13977 12.5121 8.73199C12.584 8.45755 12.5608 7.98836 12.4619 7.71557C12.2815 7.21803 11.8161 6.76785 11.3048 6.59649C10.8 6.42731 10.2793 6.44633 9.80902 6.65121L9.589 6.74704L9.04585 6.33564L8.50269 5.92424L8.76948 5.60334C9.23714 5.04077 9.36029 4.73214 9.33466 4.18685C9.3163 3.79662 9.25775 3.61386 9.04575 3.28534C8.895 3.05167 8.84386 3.00606 8.04804 2.39484L7.20926 1.75058L7.35142 1.68268C7.60019 1.56387 7.6952 1.54206 8.09661 1.51149C8.39711 1.48863 8.53852 1.49253 8.69923 1.52818ZM5.79755 10.9413C4.12974 12.8602 2.89419 14.2558 2.83552 14.287C2.71632 14.3505 2.4494 14.3832 2.31553 14.3507C1.99414 14.2727 1.78382 13.9077 1.88321 13.6006C1.91037 13.5167 2.76507 12.5121 4.78961 10.1844L7.65758 6.88693L8.15827 7.26808L8.65895 7.64924L5.79755 10.9413Z" fill="white"/>
</svg>
