<svg width="16" height="13" viewBox="0 0 16 13" fill="none" xmlns="http://www.w3.org/2000/svg">
  <path fill-rule="evenodd" clip-rule="evenodd" d="M15.7408 10.2579C15.7408 11.6901 14.9726 12.4649 13.5208 12.4649H2.47909C1.03377 12.4649 0.259033 11.6967 0.259033 10.2579V2.35421C0.259033 0.921916 1.03377 0.153687 2.47909 0.153687H13.5208C14.9726 0.153687 15.7408 0.921916 15.7408 2.35421V10.2579ZM1.7499 3.43493H14.2499V2.51696C14.2499 1.92451 13.9439 1.64456 13.384 1.64456H2.61579C2.04938 1.64456 1.7499 1.92451 1.7499 2.51696V3.43493ZM13.384 10.974H2.61579C2.04938 10.974 1.7499 10.6875 1.7499 10.0951V4.99744H14.2499V10.0951C14.2499 10.6875 13.9439 10.974 13.384 10.974ZM5.89704 9.07946C5.89704 9.44404 5.63662 9.70446 5.25251 9.70446H3.65746C3.27985 9.70446 3.01944 9.44404 3.01944 9.07946V7.87503C3.01944 7.50394 3.27985 7.25003 3.65746 7.25003H5.25251C5.63662 7.25003 5.89704 7.50394 5.89704 7.87503V9.07946Z" fill="#00a3ff"/>
</svg>