<svg width="14" height="18" viewBox="0 0 14 18" fill="none" xmlns="http://www.w3.org/2000/svg">
<path fill-rule="evenodd" clip-rule="evenodd" d="M8.3929 17.6589C9.83171 17.6589 10.5999 16.8841 10.5999 15.4388V14.2409H11.6742C13.113 14.2409 13.8812 13.4596 13.8812 12.0143V6.97526C13.8812 6.07031 13.6859 5.49089 13.152 4.9375L9.93587 1.66276C9.42155 1.14193 8.80957 0.933594 8.00879 0.933594H5.59993C4.16764 0.933594 3.39941 1.70833 3.39941 3.15365V4.35807H2.3252C0.886393 4.35807 0.118164 5.13281 0.118164 6.57812V15.4388C0.118164 16.8906 0.886393 17.6589 2.3252 17.6589H8.3929ZM11.5108 12.75H10.5994V10.4974C10.5994 9.59245 10.4757 9.14323 9.90926 8.57031L6.42619 5.04167C5.95744 4.5599 5.53426 4.39714 4.88973 4.36458V3.29036C4.88973 2.73047 5.16968 2.42448 5.76213 2.42448H8.34676V5.32812C8.34676 6.18099 8.82853 6.65625 9.67489 6.65625H12.3897V11.8841C12.3897 12.444 12.1033 12.75 11.5108 12.75ZM9.83724 5.47786H11.9987L9.52474 2.97135V5.16536C9.52474 5.38021 9.61588 5.47786 9.83724 5.47786ZM8.22957 16.1745H2.48088C1.88843 16.1745 1.60848 15.8685 1.60848 15.3021V6.71484C1.60848 6.15495 1.88843 5.84896 2.48088 5.84896H4.35588V9.20833C4.35588 10.25 4.86369 10.7448 5.89233 10.7448H9.10848V15.3021C9.10848 15.8685 8.82202 16.1745 8.22957 16.1745ZM6.01563 9.48828H8.95183L5.61849 6.10286V9.08464C5.61849 9.36458 5.74219 9.48828 6.01563 9.48828Z" fill="white"/>
</svg>
