<svg width="18" height="14" viewBox="0 0 18 14" fill="none" xmlns="http://www.w3.org/2000/svg">
  <path fill-rule="evenodd" clip-rule="evenodd" d="M14.7758 1.70297C13.7135 1.21555 12.5744 0.856441 11.3833 0.650765C11.3617 0.646796 11.34 0.656716 11.3288 0.676556C11.1823 0.937122 11.02 1.27705 10.9064 1.54423C9.62536 1.35245 8.3509 1.35245 7.09614 1.54423C6.98248 1.27111 6.81431 0.937122 6.66715 0.676556C6.65597 0.657378 6.63431 0.647458 6.61262 0.650765C5.42224 0.855784 4.28311 1.21489 3.22018 1.70297C3.21097 1.70693 3.20309 1.71355 3.19785 1.72215C1.03716 4.95017 0.445255 8.09886 0.735623 11.2085C0.736937 11.2237 0.745477 11.2383 0.757302 11.2475C2.18287 12.2944 3.56377 12.93 4.91902 13.3513C4.94071 13.3579 4.9637 13.3499 4.9775 13.3321C5.29809 12.8943 5.58386 12.4327 5.82888 11.9472C5.84334 11.9188 5.82954 11.8851 5.79999 11.8738C5.3467 11.7019 4.91508 11.4922 4.49989 11.2541C4.46705 11.235 4.46442 11.188 4.49464 11.1655C4.58201 11.1 4.6694 11.0319 4.75283 10.9631C4.76792 10.9506 4.78895 10.9479 4.8067 10.9559C7.53431 12.2012 10.4873 12.2012 13.1827 10.9559C13.2004 10.9473 13.2215 10.9499 13.2372 10.9625C13.3207 11.0313 13.408 11.1 13.4961 11.1655C13.5263 11.188 13.5243 11.235 13.4915 11.2541C13.0763 11.4968 12.6447 11.7019 12.1907 11.8732C12.1612 11.8844 12.148 11.9188 12.1625 11.9472C12.4128 12.432 12.6985 12.8936 13.0132 13.3314C13.0263 13.3499 13.05 13.3579 13.0717 13.3513C14.4335 12.93 15.8144 12.2944 17.24 11.2475C17.2525 11.2383 17.2603 11.2244 17.2617 11.2092C17.6092 7.61407 16.6796 4.49121 14.7975 1.7228C14.7929 1.71355 14.785 1.70693 14.7758 1.70297ZM6.23617 9.31511C5.41498 9.31511 4.73833 8.56119 4.73833 7.6353C4.73833 6.7094 5.40185 5.95548 6.23617 5.95548C7.07704 5.95548 7.74713 6.71602 7.73399 7.6353C7.73399 8.56119 7.07047 9.31511 6.23617 9.31511ZM10.2764 7.6353C10.2764 8.56119 10.953 9.31511 11.7742 9.31511C12.6151 9.31511 13.272 8.56119 13.272 7.6353C13.2851 6.71602 12.6151 5.95548 11.7742 5.95548C10.9399 5.95548 10.2764 6.7094 10.2764 7.6353Z" fill="white"/>
</svg>