<svg width="12" height="12" viewBox="0 0 12 15" fill="none" xmlns="http://www.w3.org/2000/svg">
  <path fill-rule="evenodd" clip-rule="evenodd" d="M9.47656 14.4155C10.9154 14.4155 11.6836 13.6343 11.6836 12.189V6.28402C11.6836 5.32048 11.5469 4.85824 10.9414 4.24626L7.67969 0.938965C7.08724 0.340007 6.59245 0.196777 5.70703 0.196777H2.52344C1.08464 0.196777 0.316406 0.971517 0.316406 2.41683V12.189C0.316406 13.6408 1.08464 14.4155 2.52344 14.4155H9.47656ZM9.32031 12.9245H2.67969C2.08724 12.9245 1.80729 12.6185 1.80729 12.0586V2.55339C1.80729 1.99349 2.08724 1.6875 2.67969 1.6875H5.34245V5.04688C5.34245 6.08854 5.84375 6.58333 6.8724 6.58333H10.1927V12.0586C10.1927 12.6185 9.90625 12.9245 9.32031 12.9245ZM6.99609 5.32682H10.043L6.59896 1.83724V4.92318C6.59896 5.20312 6.72266 5.32682 6.99609 5.32682Z" fill="white"/>
</svg>