<svg width="122" height="124" viewBox="0 0 122 124" fill="none" xmlns="http://www.w3.org/2000/svg">
<mask id="mask0_30_110" style="mask-type:alpha" maskUnits="userSpaceOnUse" x="0" y="0" width="122" height="124">
<path d="M121.787 34.8331L69.3876 0.476562V19.6855L103.002 41.5288L99.0474 54.042H69.3876V69.958H99.0474L103.002 82.4712L69.3876 104.314V123.523L121.787 89.2767L113.218 62.0549L121.787 34.8331Z" fill="#1D1D1B"/>
<path d="M23.7993 69.958H53.3493V54.042H23.6894L19.8446 41.5288L53.3493 19.6855V0.476562L0.950195 34.8331L9.5186 62.0549L0.950195 89.2767L53.4591 123.523V104.314L19.8446 82.4712L23.7993 69.958Z" fill="#1D1D1B"/>
</mask>
<g mask="url(#mask0_30_110)">
<path d="M121.787 34.8331L69.3876 0.476562V19.6855L103.002 41.5288L99.0474 54.042H69.3876V69.958H99.0474L103.002 82.4712L69.3876 104.314V123.523L121.787 89.2767L113.218 62.0549L121.787 34.8331Z" fill="white"/>
<path d="M23.7993 69.958H53.3493V54.042H23.6894L19.8446 41.5288L53.3493 19.6855V0.476562L0.950195 34.8331L9.5186 62.0549L0.950195 89.2767L53.4591 123.523V104.314L19.8446 82.4712L23.7993 69.958Z" fill="white"/>
<rect x="1.10632" y="0.476562" width="133.744" height="136.085" fill="url(#paint0_linear_30_110)"/>
<ellipse cx="8.43176" cy="27.4602" rx="117.639" ry="127.545" transform="rotate(-33.9303 8.43176 27.4602)" fill="url(#paint1_radial_30_110)"/>
</g>
<defs>
<linearGradient id="paint0_linear_30_110" x1="105.084" y1="132.594" x2="69.8439" y2="-12.2765" gradientUnits="userSpaceOnUse">
<stop stop-color="#0B46F9"/>
<stop offset="1" stop-color="#BBFBE0"/>
</linearGradient>
<radialGradient id="paint1_radial_30_110" cx="0" cy="0" r="1" gradientUnits="userSpaceOnUse" gradientTransform="translate(8.43175 27.4602) rotate(72.2557) scale(96.4979 90.4543)">
<stop offset="0.119792" stop-color="#8952FF" stop-opacity="0.87"/>
<stop offset="1" stop-color="#DABDFF" stop-opacity="0"/>
</radialGradient>
</defs>
</svg>
