<svg width="18" height="16" viewBox="0 0 18 16" fill="none" xmlns="http://www.w3.org/2000/svg">
  <path fill-rule="evenodd" clip-rule="evenodd" d="M15.6045 13.875C15.6045 14.9346 14.9619 15.5703 13.8682 15.5703H4.6123C3.51855 15.5703 2.87598 14.9346 2.87598 13.875V7.64746L2.18555 8.22852C1.99414 8.38574 1.77539 8.50195 1.5498 8.50195C1.05078 8.50195 0.743164 8.16699 0.743164 7.75C0.743164 7.52441 0.852539 7.29199 1.05762 7.11426L8.18066 1.13965C8.84375 0.585938 9.69141 0.585938 10.3477 1.13965L13.4717 3.76465V2.5752C13.4717 2.26758 13.6836 2.0625 13.9912 2.0625H15.0986C15.4062 2.0625 15.6045 2.26758 15.6045 2.5752V5.55566L17.457 7.11426C17.6621 7.28516 17.7715 7.50391 17.7715 7.76367C17.7715 8.21484 17.4297 8.50195 16.9717 8.50195C16.7393 8.50195 16.5205 8.38574 16.3291 8.22852L15.6045 7.62012V13.875ZM5.08398 14.0049H7.29883V9.60254C7.29883 9.28125 7.51074 9.07617 7.83887 9.07617H10.6895C11.0107 9.07617 11.2158 9.28125 11.2158 9.60254V14.0049H13.3965C13.8135 14.0049 14.0459 13.7725 14.0459 13.3486V6.30078L9.60254 2.5752C9.38379 2.39062 9.1377 2.39062 8.92578 2.5752L4.43457 6.33496V13.3486C4.43457 13.7725 4.66699 14.0049 5.08398 14.0049Z" fill="white"/>
</svg>