<svg width="14" height="15" viewBox="0 0 14 15" fill="none" xmlns="http://www.w3.org/2000/svg">
<path fill-rule="evenodd" clip-rule="evenodd" d="M13.804 7.29948C13.804 11.0299 10.7311 14.1094 7.00065 14.1094C3.27018 14.1094 0.197266 11.0299 0.197266 7.29948C0.197266 3.56901 3.27018 0.496094 7.00065 0.496094C10.7246 0.496094 13.804 3.56901 13.804 7.29948ZM1.73372 7.29948C1.73372 10.2227 4.07747 12.5794 7.00065 12.5794C9.92383 12.5794 12.2806 10.2227 12.2806 7.29948C12.2741 4.3763 9.92383 2.02604 7.00065 2.02604C4.07096 2.02604 1.73372 4.3763 1.73372 7.29948ZM4.48091 10.457L8.02908 8.81642C8.25695 8.71226 8.4132 8.5495 8.51736 8.32814L10.145 4.78648C10.3663 4.29819 10.0148 3.9271 9.51346 4.15496L5.97179 5.78908C5.75044 5.88674 5.6007 6.03648 5.49002 6.27736L3.84939 9.82554C3.63455 10.3008 4.00564 10.6654 4.48091 10.457ZM6.16081 7.3125C6.16081 7.77474 6.53841 8.15234 7.00065 8.15234C7.4694 8.15234 7.847 7.77474 7.847 7.3125C7.847 6.85026 7.4694 6.47266 7.00065 6.47266C6.53841 6.47266 6.16081 6.85026 6.16081 7.3125Z" fill="white"/>
</svg>
