<svg id="logo-new" xmlns="http://www.w3.org/2000/svg" width="433.49" height="433.49" viewBox="0 0 433.49 433.49">
  <path id="Path_1" data-name="Path 1" d="M317.49,11c-.88-.88-1.8-1.71-2.75-2.49A37.47,37.47,0,0,0,291,0H142.49a37.475,37.475,0,0,0-23.766,8.5A35.909,35.909,0,0,0,116,11L11,116A37.5,37.5,0,0,0,0,142.49V291a37.5,37.5,0,0,0,11,26.51l105,105a35.911,35.911,0,0,0,2.75,2.49,37.47,37.47,0,0,0,23.76,8.49H291A37.47,37.47,0,0,0,314.74,425c.95-.78,1.87-1.61,2.75-2.49l105-105a37.5,37.5,0,0,0,11-26.51V142.49a37.5,37.5,0,0,0-11-26.51Zm58.7,205.75V341.29a34.89,34.89,0,0,1-34.9,34.9H92.17a34.89,34.89,0,0,1-34.89-34.9V92.17A34.89,34.89,0,0,1,92.17,57.28H341.29a34.89,34.89,0,0,1,34.9,34.89Z" fill="#fff"/>
</svg>