<svg xmlns="http://www.w3.org/2000/svg" viewBox="0 0 2212.25 433.47">
  <defs>
    <style>.cls-1{fill:#fff;}</style>
  </defs>
  <path class="cls-1" d="M317.49,11c-.88-.88-1.8-1.71-2.75-2.49A37.47,37.47,0,0,0,291,0H142.49a37.47,37.47,0,0,0-23.76,8.49A35.91,35.91,0,0,0,116,11L11,116A37.5,37.5,0,0,0,0,142.49V291a37.5,37.5,0,0,0,11,26.51l105,105a35.91,35.91,0,0,0,2.75,2.49,37.47,37.47,0,0,0,23.76,8.49H291A37.47,37.47,0,0,0,314.74,425c.95-.78,1.87-1.61,2.75-2.49l105-105a37.5,37.5,0,0,0,11-26.51V142.49a37.5,37.5,0,0,0-11-26.51Zm58.7,205.75V341.29a34.89,34.89,0,0,1-34.9,34.9H92.17a34.89,34.89,0,0,1-34.89-34.9V92.17A34.89,34.89,0,0,1,92.17,57.28H341.29a34.89,34.89,0,0,1,34.9,34.89Z"/>
  <path class="cls-1" d="M754.83,325.41c-98.36,0-109.71-42.37-109.71-67.09v-2.77h61.29c.75,11.35,7.31,29.76,55.73,29.76h3.53c49.43,0,55-9.84,55-19.92,0-10.85-5.8-17.66-49.18-18.92l-32.28-.76c-70.11-2-91.55-25.72-91.55-55v-2.27c0-28,16.65-57.25,102.14-57.25h17.41c88.77,0,108.94,31,108.94,59.26V193h-61c-1.26-7.07-5-22.45-54.22-22.45h-4c-45.4,0-48.68,8.07-48.68,16.14s5.05,15.38,43.38,16.14l31.52.51c70.62,1.26,99.12,18.41,99.12,55.73v3.53c0,31-15.64,62.8-110,62.8Z"/>
  <path class="cls-1" d="M1010.8,324.9c-101.63-5-115-61.78-115-93.31V224c0-34.05,13.87-92.81,132.15-92.81h10.85c117,0,131.9,58.76,131.9,92.81v7.56c0,31-12.11,83.48-103.91,92.56l29.26,37.07H1010.8Zm98.36-99.11c0-22.44-12.36-49.18-75.91-49.18-64.56,0-75.91,26.48-75.91,49.18v3c0,22.19,12.35,50.94,75.91,50.94,63,0,75.91-28.24,75.91-50.44Z"/>
  <path class="cls-1" d="M1307.63,324.9c-100.62,0-117-64-117-99.36v-91h59V222c0,24.21,10.84,54.22,62,54.22,50.44,0,61.54-30,61.54-54.22V134.5H1432v91c0,35.31-19.17,99.36-115.26,99.36Z"/>
  <path class="cls-1" d="M1614.05,287.83H1500.31l-16.9,34.3h-59.77l94.83-187.63h76.16L1695,322.13h-63.3Zm-58-112.73-34.81,70.36h71.12Z"/>
  <path class="cls-1" d="M1706.6,134.5h124.34c108.69,0,132.4,46.65,132.4,88.77v7.57c0,40.35-22.45,91.29-132.15,91.29H1706.6ZM1765.37,277h61c66.58,0,75.4-29.26,75.4-48.43v-1.51c0-19.16-7.81-48.17-75.4-48.17h-61Z"/>
  <path class="cls-1" d="M2084.89,325.41c-98.35,0-109.7-42.37-109.7-67.09v-2.77h61.28c.76,11.35,7.32,29.76,55.74,29.76h3.53c49.43,0,55-9.84,55-19.92,0-10.85-5.8-17.66-49.18-18.92l-32.28-.76c-70.11-2-91.55-25.72-91.55-55v-2.27c0-28,16.65-57.25,102.14-57.25h17.4c88.78,0,108.95,31,108.95,59.26V193h-61c-1.26-7.07-5-22.45-54.22-22.45h-4c-45.39,0-48.67,8.07-48.67,16.14s5,15.38,43.38,16.14l31.52.51c70.62,1.26,99.11,18.41,99.11,55.73v3.53c0,31-15.63,62.8-109.95,62.8Z"/>
</svg>