<svg width="14" height="15" viewBox="0 0 14 15" fill="none" xmlns="http://www.w3.org/2000/svg">
<path fill-rule="evenodd" clip-rule="evenodd" d="M10.0273 0.378906C10.6377 0.378906 10.9856 0.696289 11.0344 1.26392H2.98389C3.02661 0.696289 3.37451 0.378906 3.99097 0.378906H10.0273ZM11.1443 2.14893C11.834 2.14893 12.1514 2.50903 12.2368 3.11328H1.78149C1.86084 2.50903 2.17822 2.14893 2.86792 2.14893H11.1443ZM11.5837 14.7893C12.9387 14.7893 13.665 14.0691 13.665 12.7202V6.19556C13.665 4.85278 12.9387 4.13257 11.5837 4.13257H2.41626C1.06128 4.13257 0.334961 4.85278 0.334961 6.19556V12.7202C0.334961 14.0691 1.06128 14.7893 2.41626 14.7893H11.5837ZM2.54443 13.3916H11.4556C11.9805 13.3916 12.2673 13.123 12.2673 12.5676V6.34814C12.2673 5.79272 11.9805 5.53027 11.4556 5.53027H2.54443C2.01343 5.53027 1.73267 5.79272 1.73267 6.34814V12.5676C1.73267 13.123 2.01343 13.3916 2.54443 13.3916ZM4.61963 9.05811C4.69897 9.05811 4.77222 8.99707 4.78442 8.91772C4.8993 8.02898 4.91236 8.02658 5.81429 7.86051L5.84033 7.85571C5.93188 7.8374 5.98682 7.77637 5.98682 7.69092C5.98682 7.60547 5.92578 7.53833 5.84033 7.52612C4.9248 7.39795 4.90039 7.39185 4.78442 6.47021C4.77222 6.38477 4.70508 6.32983 4.61963 6.32983C4.52808 6.32983 4.46704 6.38477 4.45483 6.47632C4.3454 7.35181 4.3268 7.35521 3.40367 7.52414L3.39282 7.52612C3.30737 7.54443 3.24634 7.61157 3.24634 7.69092C3.24634 7.78247 3.30737 7.8374 3.40503 7.85571C4.32666 7.99609 4.34497 8.02051 4.45483 8.90552C4.46704 8.99707 4.52808 9.05811 4.61963 9.05811ZM8.2207 12.3967C8.20239 12.5188 8.11084 12.5981 7.99487 12.5981C7.8728 12.5981 7.78735 12.5188 7.76904 12.3967C7.49438 10.5413 7.25635 10.3154 5.45581 10.0774C5.33374 10.0652 5.24829 9.97363 5.24829 9.85156C5.24829 9.72949 5.32764 9.63794 5.45581 9.62573C7.26245 9.42432 7.5188 9.16187 7.76904 7.3125C7.78735 7.18433 7.87891 7.11108 7.99487 7.11108C8.11084 7.11108 8.20239 7.19043 8.2207 7.3125C8.48315 9.17407 8.7395 9.41211 10.5278 9.62573C10.656 9.63794 10.7415 9.72949 10.7415 9.85156C10.7415 9.97363 10.6499 10.0652 10.5217 10.0774C8.72119 10.2788 8.46484 10.5413 8.2207 12.3967Z" fill="#00a3ff"/>
</svg>
