<svg width="20" height="13" viewBox="0 0 20 13" fill="none" xmlns="http://www.w3.org/2000/svg">
<path fill-rule="evenodd" clip-rule="evenodd" d="M13.4313 6.39722C15.0264 6.39722 16.3154 5.00399 16.3154 3.27873C16.3154 1.58602 15.0199 0.225342 13.4313 0.225342C11.8493 0.225342 10.5472 1.59904 10.5472 3.28524C10.5537 5.00399 11.8363 6.39722 13.4313 6.39722ZM5.84671 6.54688C7.23343 6.54688 8.35973 5.31641 8.35973 3.79948C8.35973 2.32161 7.23343 1.11719 5.84671 1.11719C4.4665 1.11719 3.32718 2.33464 3.33369 3.80599C3.33369 5.32292 4.45999 6.54688 5.84671 6.54688ZM11.8493 3.28507C11.8493 4.33325 12.572 5.14054 13.4314 5.14054C14.2972 5.14054 15.0134 4.32023 15.0134 3.27856C15.0134 2.26294 14.2972 1.48169 13.4314 1.48169C12.572 1.48169 11.8428 2.26945 11.8493 3.28507ZM5.84673 5.30998C5.15663 5.30998 4.57069 4.64592 4.57069 3.80607C4.56418 3.00529 5.15663 2.35425 5.84673 2.35425C6.54335 2.35425 7.12928 2.99227 7.12928 3.79956C7.12928 4.64592 6.54335 5.30998 5.84673 5.30998ZM6.72559 11.306C6.68001 11.7747 6.9209 12.3086 7.31152 12.543H2.29199C1.31543 12.543 0.827148 12.1133 0.827148 11.293C0.827148 9.13151 3.06673 7.17188 5.84017 7.17188C6.81022 7.17188 7.8584 7.4388 8.66569 7.91406C8.25553 8.17448 7.96256 8.48047 7.7347 8.84505C7.22689 8.57161 6.49772 8.40234 5.84017 8.40234C3.82845 8.40234 2.14876 9.75651 2.14876 11.1497C2.14876 11.2539 2.19434 11.306 2.31152 11.306H6.72559ZM17.4613 12.5365C18.6201 12.5365 19.1865 12.1589 19.1865 11.3516C19.1865 9.49617 16.8883 7.17847 13.4313 7.17847C9.97428 7.17847 7.6696 9.49617 7.6696 11.3516C7.6696 12.1589 8.236 12.5365 9.39486 12.5365H17.4613ZM9.08236 11.1236C9.08236 11.2343 9.13444 11.2799 9.27767 11.2799H17.585C17.7217 11.2799 17.7738 11.2343 17.7738 11.1236C17.7738 10.1861 16.1982 8.43481 13.4313 8.43481C10.6579 8.43481 9.08236 10.1861 9.08236 11.1236Z" fill="white"/>
</svg>
