<svg width="20" height="12" viewBox="0 0 20 12" fill="none" xmlns="http://www.w3.org/2000/svg">
<path fill-rule="evenodd" clip-rule="evenodd" d="M9.3301 11.311L12.3086 1.10592C12.4368 0.654256 12.211 0.220906 11.741 0.0866286C11.2771 -0.0415453 10.856 0.172078 10.7095 0.684773L7.74319 10.8471C7.6028 11.3293 7.79812 11.7749 8.28029 11.9091C8.75027 12.0373 9.18361 11.7871 9.3301 11.311ZM14.8721 10.1267L18.7174 6.65378C18.9249 6.47068 19.0286 6.22654 19.0286 5.9885C19.0286 5.75046 18.9249 5.50632 18.7174 5.32322L14.8721 1.84421C14.4937 1.50852 13.9932 1.52073 13.6758 1.87473C13.3585 2.23484 13.389 2.73533 13.7552 3.06491L16.984 5.9885L13.7552 8.91208C13.389 9.23557 13.3585 9.74216 13.6758 10.0962C13.9932 10.4502 14.4937 10.4624 14.8721 10.1267ZM6.24805 8.91208C6.61426 9.23557 6.64478 9.74216 6.32739 10.0962C6.01001 10.4502 5.50952 10.4624 5.13721 10.1267L1.28589 6.65378C1.07837 6.47068 0.974609 6.22654 0.974609 5.9885C0.974609 5.75046 1.07837 5.50632 1.28589 5.32322L5.13721 1.84421C5.50952 1.50852 6.01001 1.52073 6.32739 1.87473C6.64478 2.23484 6.61426 2.73533 6.24805 3.06491L3.01929 5.9885L6.24805 8.91208Z" fill="white"/>
</svg>
