<svg width="36" height="36" viewBox="0 0 36 36" fill="none" xmlns="http://www.w3.org/2000/svg">
<rect width="36" height="36" rx="12" fill="#EFEFEF"/>
<g filter="url(#filter0_i_1122_323)">
<path fill-rule="evenodd" clip-rule="evenodd" d="M15.602 13.9465H23.6155C24.1432 13.9687 24.6678 13.8551 25.139 13.6165C25.8785 13.1527 26.8 12.5 27.075 11.95L27.0348 11.8863C26.9311 11.7215 26.7189 11.3842 26.525 11.125C25.6178 9.91203 24.7422 9.1827 23.4175 8.43151C21.7656 7.49468 19.8991 7.0015 18 7C17.1931 6.9999 16.3887 7.09031 15.602 7.26951V13.9465ZM12.709 8.375V13.9465H7.759C8.71438 11.5724 10.4639 9.60324 12.709 8.375ZM23.016 16.372C22.621 16.8683 22.1769 17.3234 21.6905 17.7305C19.9855 19.0835 18.429 19.6555 17.208 19.672H15.602V16.372H23.016ZM12.709 16.383V19.683H7.1375C7.0504 19.1372 7.00444 18.5857 7 18.033C7.0039 17.4803 7.04986 16.9287 7.1375 16.383H12.709ZM12.709 22.092H7.759C8.71281 24.4671 10.4627 26.4367 12.709 27.6635V22.092ZM20.959 21.3825C22.4055 20.7115 23.269 20.101 25.1555 18.022C26.0998 16.9444 27.3959 16.2369 28.813 16.0255C28.934 16.6842 28.9966 17.3523 29 18.022C29 20.9394 27.8411 23.7373 25.7782 25.8002C23.7153 27.8631 20.9174 29.022 18 29.022C17.1933 29.0194 16.3892 28.929 15.602 28.7525V22.092H17.208C18.4889 22.0642 19.7564 21.8245 20.959 21.3825Z" fill="url(#paint0_linear_1122_323)"/>
</g>
<defs>
<filter id="filter0_i_1122_323" x="7" y="7" width="23" height="23.022" filterUnits="userSpaceOnUse" color-interpolation-filters="sRGB">
<feFlood flood-opacity="0" result="BackgroundImageFix"/>
<feBlend mode="normal" in="SourceGraphic" in2="BackgroundImageFix" result="shape"/>
<feColorMatrix in="SourceAlpha" type="matrix" values="0 0 0 0 0 0 0 0 0 0 0 0 0 0 0 0 0 0 127 0" result="hardAlpha"/>
<feOffset dx="1" dy="1"/>
<feGaussianBlur stdDeviation="0.5"/>
<feComposite in2="hardAlpha" operator="arithmetic" k2="-1" k3="1"/>
<feColorMatrix type="matrix" values="0 0 0 0 0 0 0 0 0 0 0 0 0 0 0 0 0 0 0.25 0"/>
<feBlend mode="normal" in2="shape" result="effect1_innerShadow_1122_323"/>
</filter>
<linearGradient id="paint0_linear_1122_323" x1="18" y1="7" x2="18" y2="29.022" gradientUnits="userSpaceOnUse">
<stop stop-color="#D73D79"/>
<stop offset="1" stop-color="#2B4CC4"/>
</linearGradient>
</defs>
</svg>
