<svg width="10" height="11" viewBox="0 0 10 11" fill="none" xmlns="http://www.w3.org/2000/svg">
<path fill-rule="evenodd" clip-rule="evenodd" d="M4.61727 3.60921C4.61727 4.46338 4.21102 4.86442 3.37769 4.86442H1.31519C0.476644 4.86442 0.0756022 4.46338 0.0756022 3.60921V1.57275C0.0756022 0.723796 0.476644 0.322754 1.31519 0.322754H3.37769C4.21102 0.322754 4.61727 0.723796 4.61727 1.57275V3.60921ZM9.9244 3.60921C9.9244 4.46338 9.52336 4.86442 8.68481 4.86442H6.62231C5.78377 4.86442 5.38273 4.46338 5.38273 3.60921V1.57275C5.38273 0.723795 5.78377 0.322754 6.62231 0.322754H8.68481C9.52336 0.322754 9.9244 0.723795 9.9244 1.57275V3.60921ZM3.4244 3.95817H1.26294C1.07023 3.95817 0.976481 3.86442 0.976481 3.6613V1.52067C0.976481 1.31755 1.07023 1.2238 1.26294 1.2238H3.4244C3.61711 1.2238 3.71086 1.31755 3.71086 1.52067V3.6613C3.71086 3.86442 3.61711 3.95817 3.4244 3.95817ZM6.57544 3.95817H8.73169C8.92961 3.95817 9.01815 3.86442 9.01815 3.6613V1.52067C9.01815 1.31755 8.92961 1.2238 8.73169 1.2238H6.57544C6.37752 1.2238 6.28898 1.31755 6.28898 1.52067V3.6613C6.28898 3.86442 6.37752 3.95817 6.57544 3.95817ZM2.82023 3.18734C2.90877 3.18734 2.94002 3.15609 2.94002 3.05713V2.11963C2.94002 2.03109 2.90877 1.99463 2.82023 1.99463H1.85669C1.77856 1.99463 1.74731 2.03109 1.74731 2.11963V3.05713C1.74731 3.15609 1.77856 3.18734 1.85669 3.18734H2.82023ZM8.26815 3.05713C8.26815 3.15609 8.2369 3.18734 8.15356 3.18734H7.19002C7.10669 3.18734 7.08065 3.15609 7.08065 3.05713V2.11963C7.08065 2.03109 7.10669 1.99463 7.19002 1.99463H8.15356C8.2369 1.99463 8.26815 2.03109 8.26815 2.11963V3.05713ZM3.37752 10.1717C4.21086 10.1717 4.61711 9.77067 4.61711 8.9165V6.88525C4.61711 6.03109 4.21086 5.63005 3.37752 5.63005H1.31502C0.476481 5.63005 0.0754395 6.03109 0.0754395 6.88525V8.9165C0.0754395 9.77067 0.476481 10.1717 1.31502 10.1717H3.37752ZM6.84106 6.92692C6.84106 7.02588 6.80461 7.05713 6.72127 7.05713H5.75773C5.6744 7.05713 5.64836 7.02588 5.64836 6.92692V5.99463C5.64836 5.90088 5.6744 5.86963 5.75773 5.86963H6.72127C6.80461 5.86963 6.84106 5.90088 6.84106 5.99463V6.92692ZM9.52857 7.05713C9.61711 7.05713 9.64836 7.02588 9.64836 6.92692V5.99463C9.64836 5.90088 9.61711 5.86963 9.52857 5.86963H8.56502C8.4869 5.86963 8.45565 5.90088 8.45565 5.99463V6.92692C8.45565 7.02588 8.4869 7.05713 8.56502 7.05713H9.52857ZM1.26294 9.26546H3.4244C3.61711 9.26546 3.71086 9.17171 3.71086 8.9738V6.82796C3.71086 6.63005 3.61711 6.5363 3.4244 6.5363H1.26294C1.07023 6.5363 0.976481 6.63005 0.976481 6.82796V8.9738C0.976481 9.17171 1.07023 9.26546 1.26294 9.26546ZM8.13794 8.46338C8.22127 8.46338 8.25773 8.42692 8.25773 8.33317V7.39567C8.25773 7.30713 8.22127 7.27067 8.13794 7.27067H7.1744C7.09627 7.27067 7.06502 7.30713 7.06502 7.39567V8.33317C7.06502 8.42692 7.09627 8.46338 7.1744 8.46338H8.13794ZM2.94002 8.36442C2.94002 8.46338 2.90877 8.49463 2.82023 8.49463H1.85669C1.77856 8.49463 1.74731 8.46338 1.74731 8.36442V7.43213C1.74731 7.33838 1.77856 7.30192 1.85669 7.30192H2.82023C2.90877 7.30192 2.94002 7.33838 2.94002 7.43213V8.36442ZM6.72127 9.86963C6.80461 9.86963 6.84106 9.83317 6.84106 9.73421V8.80192C6.84106 8.70817 6.80461 8.67692 6.72127 8.67692H5.75773C5.6744 8.67692 5.64836 8.70817 5.64836 8.80192V9.73421C5.64836 9.83317 5.6744 9.86963 5.75773 9.86963H6.72127ZM9.64836 9.73421C9.64836 9.83317 9.61711 9.86963 9.52857 9.86963H8.56502C8.4869 9.86963 8.45565 9.83317 8.45565 9.73421V8.80192C8.45565 8.70817 8.4869 8.67692 8.56502 8.67692H9.52857C9.61711 8.67692 9.64836 8.70817 9.64836 8.80192V9.73421Z" fill="white"/>
</svg>
