<svg width="12" height="12" viewBox="0 0 12 12" fill="none" xmlns="http://www.w3.org/2000/svg">
<path fill-rule="evenodd" clip-rule="evenodd" d="M2.69692 11.2141H9.30317C10.5172 11.2141 11.1571 10.5797 11.1571 9.38206V2.73752C11.1571 1.53987 10.5172 0.900024 9.30317 0.900024H2.69692C1.48833 0.900024 0.843018 1.53987 0.843018 2.73752V9.38206C0.843018 10.5797 1.48833 11.2141 2.69692 11.2141ZM2.80084 10C2.31959 10 2.06256 9.75391 2.06256 9.25078V2.86328C2.06256 2.36016 2.31959 2.11953 2.80084 2.11953H9.20475C9.67506 2.11953 9.94303 2.36016 9.94303 2.86328V9.25078C9.94303 9.75391 9.67506 10 9.20475 10H2.80084ZM8.18756 6.99219C8.18756 7.30937 7.99615 7.52812 7.70084 7.52812C7.40553 7.52812 7.21412 7.32031 7.21412 6.99219V6.17734L7.29615 5.43906L6.59615 6.21016L4.75865 8.04219C4.64381 8.15703 4.51256 8.21172 4.3485 8.21172C4.04772 8.21172 3.81803 8.00391 3.81803 7.68125C3.81803 7.53906 3.88365 7.39687 3.98756 7.29297L5.83053 5.44453L6.61256 4.74453L5.90709 4.82656H5.03756C4.7149 4.82656 4.50162 4.64062 4.50162 4.34531C4.50162 4.04453 4.70944 3.85859 5.03756 3.85859H7.56412C7.9524 3.85859 8.18756 4.06094 8.18756 4.47109V6.99219Z" fill="white"/>
</svg>
