<?xml version="1.0" encoding="utf-8"?>
<!-- Generator: Adobe Illustrator 25.4.0, SVG Export Plug-In . SVG Version: 6.00 Build 0)  -->
<svg version="1.1" id="Layer_1" xmlns="http://www.w3.org/2000/svg" xmlns:xlink="http://www.w3.org/1999/xlink" x="0px" y="0px"
	 viewBox="0 0 30 33" style="enable-background:new 0 0 30 33;" xml:space="preserve">
	<style type="text/css">
	.st0{fill:#FFFFFF;}
</style>
	<path class="st0" d="M29.4,8.5c0-0.1-0.1-0.2-0.2-0.3l-6.3-3.5c-1.3-0.7-3.2-0.7-4.5,0c0,0-0.1,0-0.1,0.1V3.3c0-0.4-0.2-1.1-1.2-1.7
	l-1.8-1c-0.2-0.1-0.5-0.1-0.7,0L1,8.2L0.7,8.3c0,0,0,0-0.1,0.1L0.6,8.6l0,0.1l0,7c0,1.4,1,3.1,2.3,3.8c0,0,0,0,0,0l-1.4,0.8
	c-0.3,0.2-0.9,0.7-0.9,1.8v2c0,0.1,0,0.3,0.1,0.4c0.1,0.1,0.2,0.2,0.3,0.3l13.7,7.6l0.1,0.1l0.3,0l0.1,0l0,0l6.4-3.5
	c1.3-0.7,2.3-2.3,2.3-3.8c0,0,0,0,0-0.1l1.4,0.8c0.6,0.3,1.3,0.3,2-0.1l1.8-1c0.1-0.1,0.2-0.2,0.3-0.3c0.1-0.1,0.1-0.2,0.1-0.4
	l0-15.2C29.5,8.8,29.5,8.7,29.4,8.5z M26.5,24.4c-0.3,0.2-0.5,0.2-0.6,0.1c-0.1,0-0.1-0.2-0.1-0.5c0,0,0-0.6,0.4-1.3
	c0.3-0.7,0.5-1.3,0.5-1.9c0-0.8-0.3-1.4-0.8-1.8c-0.4-0.3-0.9-0.4-1.4-0.3c-0.1,0-0.2,0.1-0.4,0.1c-0.1,0.1-0.3,0.1-0.5,0.2
	c-0.3,0.2-0.5,0.3-0.7,0.5c-0.7,0.6-1.1,1.4-1.4,2.3c-0.1,0.3-0.1,0.5-0.1,0.9V23c0,0.1,0,0.3,0,0.4c0.1,0.4,0.3,0.9,0.6,1.2
	c0.2,0.2,0.2,0.5,0.2,0.6c0,0.9-0.7,2-1.5,2.4l-5,2.8V16.9l1.4-0.8c0.3-0.2,0.5-0.2,0.6-0.1c0,0.1,0.1,0.2,0.1,0.4
	c0,0,0,0.6-0.4,1.4c-0.1,0.2-0.2,0.5-0.3,0.7c-0.1,0.3-0.2,0.7-0.2,1.1c0,0.8,0.3,1.4,0.8,1.8l0.3,0.2c0.4,0.2,0.9,0.2,1.4,0
	c0.2-0.1,0.3-0.1,0.5-0.2l0.1-0.1c1.2-0.7,2-2.2,2.1-3.6l0-0.3c0-0.2-0.1-0.5-0.1-0.7c-0.1-0.3-0.3-0.5-0.5-0.8
	c-0.2-0.2-0.2-0.5-0.2-0.6c0-0.9,0.7-2,1.5-2.4l5-2.8v13.5L26.5,24.4L26.5,24.4z M23.1,22.4c0.2-0.5,0.5-1,0.9-1.4
	c0.1-0.1,0.3-0.3,0.5-0.4c0.1,0,0.1-0.1,0.2-0.1c0,0,0.1,0,0.1,0c0.1,0,0.2,0,0.2,0c0.1,0.1,0.1,0.2,0.1,0.5c0,0.3-0.1,0.7-0.3,1.2
	c-0.3,0.6-0.4,1.1-0.5,1.5l-1.4-0.8C23,22.7,23,22.5,23.1,22.4z M13.1,11.1c0.8-0.4,2.1-0.4,2.9,0c0.1,0,0.1,0.1,0.2,0.1
	c0.1,0.1,0.2,0.2,0.2,0.2c0,0.1-0.1,0.2-0.4,0.4c-0.1,0-0.1,0.1-0.2,0.1c-0.3,0.1-0.7,0.2-1.1,0.2c-0.8,0.1-1.4,0.3-1.7,0.4
	c-0.2,0.1-0.3,0.1-0.3,0.1c-0.5,0.3-0.9,0.6-1,1.1l-1-0.5c0.3-0.1,0.5-0.2,0.8-0.3c0.3-0.2,0.5-0.4,0.8-0.7c0.1-0.2,0.3-0.4,0.3-0.6
	C12.7,11.4,12.8,11.3,13.1,11.1L13.1,11.1z M2,10.2l12.2,6.8v1.6c0,0.3-0.1,0.4-0.1,0.5c0,0-0.1,0-0.2,0c-0.1,0-0.2-0.1-0.4-0.1
	c0,0-0.5-0.3-1-1c-0.3-0.4-0.8-1-1.4-1.3c-0.7-0.4-1.4-0.5-2-0.2L9,16.5c-0.5,0.3-0.8,0.7-0.9,1.3c0,0.2,0,0.3,0,0.5
	c0,1.4,0.9,2.9,2.1,3.7l0.1,0.1c0.5,0.3,1.1,0.4,1.7,0.3c0.3-0.1,0.6,0.1,0.7,0.1c0.7,0.4,1.2,1.2,1.4,2c0,0.1,0,0.3,0,0.4v5.5
	L2,23.7v-1.6c0-0.3,0.1-0.4,0.2-0.5c0.1,0,0.3,0,0.6,0.1l0,0c0.1,0.1,0.5,0.4,1,1c0.4,0.6,0.9,1,1.4,1.3c0.1,0,0.1,0.1,0.2,0.1
	l0.1,0.1l0.1,0c0.5,0.2,1.1,0.2,1.5,0c0.5-0.2,0.9-0.7,1-1.4c0-0.2,0-0.3,0-0.5c0-1.4-0.9-2.9-2.1-3.7l-0.1-0.1
	c-0.1-0.1-0.3-0.1-0.4-0.2c-0.4-0.2-0.9-0.2-1.3-0.1c-0.3,0.1-0.6,0-0.7-0.1C2.7,17.7,2,16.6,2,15.7V10.2z M12.3,20.8
	c-0.2,0-0.3,0-0.5,0.1c-0.2,0-0.4,0-0.6-0.1l-0.1-0.1c-0.8-0.5-1.4-1.5-1.4-2.4c0-0.1,0-0.1,0-0.2c0-0.1,0.1-0.2,0.1-0.3
	c0.1,0,0.3,0,0.6,0.1c0.3,0.2,0.6,0.5,0.9,0.9c0.6,0.8,1.3,1.3,1.4,1.4c0.3,0.1,0.5,0.3,0.8,0.3c0.2,0,0.4,0,0.6,0v1.1
	c-0.2-0.2-0.5-0.4-0.7-0.5C13.1,20.9,12.7,20.8,12.3,20.8z M6.6,22.3c0,0.1,0,0.1,0,0.2c0,0.1,0,0.2-0.1,0.3c-0.1,0-0.2,0-0.4,0
	c-0.1,0-0.1-0.1-0.2-0.1c-0.3-0.2-0.6-0.5-0.9-0.9c-0.4-0.5-0.8-0.9-1.1-1.1l1.3-0.7C6,20.4,6.6,21.5,6.6,22.3z M13.2,14.5
	c0,0,0.1-0.2,0.4-0.3c0,0,0.1,0,0.1,0c0.4-0.2,0.8-0.3,1.3-0.3c0.6-0.1,1.1-0.2,1.5-0.3c0.1-0.1,0.3-0.1,0.4-0.2
	c0.7-0.4,1.1-1,1.2-1.6c0-0.6-0.2-1.1-0.8-1.6C17.1,10,17,9.9,16.8,9.8c-0.6-0.3-1.4-0.5-2.2-0.5c-0.7,0-1.5,0.2-2.2,0.5l-0.1,0.1
	c-0.3,0.2-0.6,0.4-0.8,0.6l-0.1,0.1c-0.1,0.2-0.2,0.4-0.3,0.6l0,0c0,0.1-0.1,0.1-0.1,0.2c-0.1,0.1-0.2,0.2-0.3,0.3
	c-0.8,0.4-2.1,0.4-3,0l-5-2.7L15,2.1l1.4,0.8c0.3,0.2,0.4,0.3,0.4,0.4c0,0-0.1,0.2-0.3,0.3c-0.1,0-0.6,0.3-1.4,0.3l-0.1,0
	c-0.2,0-0.4,0-0.6,0.1l-0.1,0c-0.4,0.1-0.7,0.2-1.1,0.4c-0.6,0.3-0.9,0.7-1.1,1.2C12.1,5.8,12,6,12,6.1c0,0.6,0.2,1.1,0.8,1.6
	c0.1,0.1,0.3,0.2,0.4,0.3c0.2,0.1,0.4,0.2,0.6,0.3c0.9,0.3,2,0.3,2.9,0.1l0.1,0c0.2-0.1,0.4-0.1,0.7-0.3l0.2-0.1
	c0.2-0.1,0.4-0.3,0.6-0.5c0.2-0.2,0.4-0.5,0.4-0.8c0.1-0.2,0.3-0.4,0.4-0.5c0.8-0.4,2.2-0.4,3,0l5,2.8L15,15.6l-1.5-0.8
	C13.3,14.7,13.2,14.5,13.2,14.5z M17.2,7L17.2,7L17.2,7L17.2,7z M15.2,5.5c0.7-0.1,1.2-0.2,1.6-0.4v1.5c-0.2,0.1-0.3,0.1-0.5,0.2
	c-0.6,0.2-1.4,0.1-2,0c-0.1,0-0.3-0.1-0.4-0.2c-0.1,0-0.1-0.1-0.2-0.1c-0.1-0.1-0.2-0.2-0.2-0.3c0-0.1,0.1-0.2,0.4-0.3
	c0.2-0.1,0.4-0.2,0.7-0.2c0.2,0,0.3-0.1,0.5-0.1L15.2,5.5z M19.2,15.4l-0.1-0.1c0,0,0-0.1-0.1-0.1l1-0.6c-0.1,0.3-0.1,0.5-0.1,0.8
	c0,0,0,0.9,0.7,1.6c0.1,0.1,0.2,0.3,0.2,0.4l0,0.1l0,0.1c0,0.9-0.7,1.9-1.4,2.3l-0.1,0c-0.1,0-0.1,0.1-0.2,0.1c-0.1,0-0.3,0.1-0.4,0
	c-0.1,0-0.1-0.2-0.1-0.5c0-0.2,0-0.4,0.1-0.6c0.1-0.2,0.1-0.3,0.2-0.6c0.5-1.1,0.5-1.9,0.5-1.9C19.4,16.1,19.4,15.7,19.2,15.4z"/>
</svg>