<svg width="18" height="19" viewBox="0 0 18 19" fill="none" xmlns="http://www.w3.org/2000/svg">
<path d="M10.3618 17.5268L12.2649 8.50333L12.5931 10.1522C12.6833 10.6115 12.9622 10.8412 13.438 10.8412H16.6372C17.0638 10.8412 17.4001 10.5131 17.4001 10.1029C17.4001 9.65997 17.072 9.34005 16.6372 9.34005H13.8481L12.9458 5.28771C12.7735 4.54943 11.6579 4.55763 11.4938 5.32052L9.62353 13.6713L7.62197 1.43224C7.49893 0.677552 6.3915 0.661146 6.21924 1.42404L4.51299 9.34005H1.36299C0.936426 9.34005 0.600098 9.67638 0.600098 10.1029C0.600098 10.5131 0.936426 10.8412 1.36299 10.8412H5.01338C5.46455 10.8412 5.75166 10.6361 5.84189 10.226L6.89189 5.42716L8.89346 17.5268C9.02471 18.2979 10.206 18.2979 10.3618 17.5268Z" fill="#00B8B9"/>
</svg>
