<svg width="16" height="14" viewBox="0 0 16 14" fill="none" xmlns="http://www.w3.org/2000/svg">
<path fill-rule="evenodd" clip-rule="evenodd" d="M15.4635 5.11849C15.4635 6.25781 14.8841 6.83073 13.7448 6.83073H2.25391C1.11458 6.83073 0.535156 6.25781 0.535156 5.11849V2.53385C0.535156 1.40104 1.11458 0.828125 2.25391 0.828125H13.7448C14.8841 0.828125 15.4635 1.40104 15.4635 2.53385V5.11849ZM2.48828 5.37891H13.5039C13.8359 5.37891 14.0182 5.20964 14.0182 4.86458V2.78776C14.0182 2.44271 13.8359 2.27344 13.5039 2.27344H2.48828C2.16276 2.27344 1.98047 2.44271 1.98047 2.78776V4.86458C1.98047 5.20964 2.16276 5.37891 2.48828 5.37891ZM13.7448 13.7902C14.8841 13.7902 15.4635 13.2172 15.4635 12.0779V9.49329C15.4635 8.36047 14.8841 7.78756 13.7448 7.78756H2.25391C1.11458 7.78756 0.535156 8.36047 0.535156 9.49329V12.0779C0.535156 13.2172 1.11458 13.7902 2.25391 13.7902H13.7448ZM2.48828 12.3383H13.5039C13.8359 12.3383 14.0182 12.1691 14.0182 11.824V9.74719C14.0182 9.40214 13.8359 9.23287 13.5039 9.23287H2.48828C2.16276 9.23287 1.98047 9.40214 1.98047 9.74719V11.824C1.98047 12.1691 2.16276 12.3383 2.48828 12.3383Z" fill="white"/>
</svg>
