<svg width="14" height="12" viewBox="0 0 14 12" fill="none" xmlns="http://www.w3.org/2000/svg">
  <path d="M4.51967 11.4174C9.54901 11.4174 12.301 7.24675 12.301 3.63608C12.301 3.51874 12.301 3.40141 12.2957 3.28408C12.829 2.90008 13.293 2.41474 13.661 1.86541C13.1703 2.08408 12.6423 2.22808 12.0877 2.29741C12.653 1.96141 13.085 1.42274 13.293 0.782745C12.765 1.09741 12.1783 1.32141 11.5543 1.44408C11.053 0.910745 10.3437 0.580078 9.55967 0.580078C8.05034 0.580078 6.82367 1.80674 6.82367 3.31608C6.82367 3.52941 6.85034 3.73741 6.89301 3.94008C4.62101 3.82808 2.60501 2.73474 1.25567 1.08141C1.02101 1.48674 0.887674 1.95608 0.887674 2.45741C0.887674 3.40674 1.37301 4.24408 2.10367 4.73475C1.65567 4.71874 1.23434 4.59608 0.866341 4.39341C0.866341 4.40408 0.866341 4.41474 0.866341 4.43074C0.866341 5.75341 1.81034 6.86275 3.05834 7.11341C2.82901 7.17741 2.58901 7.20941 2.33834 7.20941C2.16234 7.20941 1.99167 7.19341 1.82634 7.16141C2.17301 8.24941 3.18634 9.03874 4.38101 9.06008C3.44234 9.79608 2.26367 10.2334 0.983674 10.2334C0.765008 10.2334 0.546341 10.2227 0.333008 10.1961C1.53834 10.9641 2.97834 11.4174 4.51967 11.4174Z" fill="#fff"/>
</svg>