<svg width="24" height="15" viewBox="0 0 24 15" fill="none" xmlns="http://www.w3.org/2000/svg">
<path fill-rule="evenodd" clip-rule="evenodd" d="M16.116 7.47668C18.0301 7.47668 19.577 5.80481 19.577 3.7345C19.577 1.70325 18.0223 0.0704346 16.116 0.0704346C14.2176 0.0704346 12.6551 1.71887 12.6551 3.74231C12.6629 5.80481 14.202 7.47668 16.116 7.47668ZM7.01581 7.6567C8.67987 7.6567 10.0314 6.18013 10.0314 4.35982C10.0314 2.58638 8.67987 1.14107 7.01581 1.14107C5.35956 1.14107 3.99237 2.60201 4.00019 4.36763C4.00019 6.18795 5.35175 7.6567 7.01581 7.6567ZM14.219 3.74199C14.219 4.9998 15.0861 5.96855 16.1174 5.96855C17.1565 5.96855 18.0158 4.98417 18.0158 3.73417C18.0158 2.51542 17.1565 1.57792 16.1174 1.57792C15.0861 1.57792 14.2111 2.52324 14.219 3.74199ZM7.01454 6.172C6.18642 6.172 5.48329 5.37512 5.48329 4.36731C5.47548 3.40637 6.18642 2.62512 7.01454 2.62512C7.85048 2.62512 8.55361 3.39075 8.55361 4.3595C8.55361 5.37512 7.85048 6.172 7.01454 6.172ZM8.06982 13.3676C8.01514 13.9301 8.3042 14.5708 8.77295 14.852H2.74951C1.57764 14.852 0.991699 14.3364 0.991699 13.352C0.991699 10.7583 3.6792 8.4067 7.00732 8.4067C8.17139 8.4067 9.4292 8.72701 10.3979 9.29732C9.90576 9.60982 9.5542 9.97701 9.28076 10.4145C8.67139 10.0864 7.79639 9.88326 7.00732 9.88326C4.59326 9.88326 2.57764 11.5083 2.57764 13.1801C2.57764 13.3051 2.63232 13.3676 2.77295 13.3676H8.06982ZM20.9533 14.8439C22.3439 14.8439 23.0236 14.3907 23.0236 13.422C23.0236 11.1954 20.2658 8.41418 16.1173 8.41418C11.9689 8.41418 9.20328 11.1954 9.20328 13.422C9.20328 14.3907 9.88297 14.8439 11.2736 14.8439H20.9533ZM10.8973 13.1482C10.8973 13.281 10.9598 13.3357 11.1317 13.3357H21.1004C21.2645 13.3357 21.327 13.281 21.327 13.1482C21.327 12.0232 19.4364 9.92167 16.116 9.92167C12.7879 9.92167 10.8973 12.0232 10.8973 13.1482Z" fill="#FFAB00"/>
</svg>
