<svg width="16" height="15" viewBox="0 0 16 15" fill="none" xmlns="http://www.w3.org/2000/svg">
<path fill-rule="evenodd" clip-rule="evenodd" d="M14.1296 5.16366C14.5527 5.16366 14.8001 4.85767 14.8001 4.53866C14.8001 4.30428 14.6699 4.11548 14.39 3.9397L8.8431 0.743083C8.56966 0.586833 8.27669 0.502197 7.99674 0.502197C7.7168 0.502197 7.42383 0.586833 7.15039 0.743083L1.60352 3.9397C1.32357 4.11548 1.19336 4.30428 1.19336 4.53866C1.19336 4.85767 1.44076 5.16366 1.86393 5.16366H14.1296ZM11.8053 3.91366H4.18815L7.78841 1.90194C7.85352 1.86938 7.93164 1.84985 7.99674 1.84985C8.06185 1.84985 8.13997 1.86938 8.20508 1.90194L11.8053 3.91366ZM4.72201 12.0452C4.72201 12.3577 4.53971 12.54 4.2207 12.54H2.55404C2.23503 12.54 2.05273 12.3577 2.05273 12.0452V11.8694C2.05273 11.5634 2.23503 11.3811 2.55404 11.3811H2.81445V6.82381H2.55404C2.23503 6.82381 2.05273 6.64152 2.05273 6.32902V6.15324C2.05273 5.84074 2.23503 5.65845 2.55404 5.65845H4.2207C4.53971 5.65845 4.72201 5.84074 4.72201 6.15324V6.32902C4.72201 6.64152 4.53971 6.82381 4.2207 6.82381H3.97331V11.3811H4.2207C4.53971 11.3811 4.72201 11.5634 4.72201 11.8694V12.0452ZM7.32617 12.54C7.63867 12.54 7.82096 12.3577 7.82096 12.0452V11.8694C7.82096 11.5634 7.63867 11.3811 7.32617 11.3811H7.07227V6.82381H7.32617C7.63867 6.82381 7.82096 6.64152 7.82096 6.32902V6.15324C7.82096 5.84074 7.63867 5.65845 7.32617 5.65845H5.653C5.3405 5.65845 5.15169 5.84074 5.15169 6.15324V6.32902C5.15169 6.64152 5.3405 6.82381 5.653 6.82381H5.91341V11.3811H5.653C5.3405 11.3811 5.15169 11.5634 5.15169 11.8694V12.0452C5.15169 12.3577 5.3405 12.54 5.653 12.54H7.32617ZM10.9329 12.0452C10.9329 12.3577 10.7441 12.54 10.4316 12.54H8.75846C8.44596 12.54 8.26367 12.3577 8.26367 12.0452V11.8694C8.26367 11.5634 8.44596 11.3811 8.75846 11.3811H9.01888V6.82381H8.75846C8.44596 6.82381 8.26367 6.64152 8.26367 6.32902V6.15324C8.26367 5.84074 8.44596 5.65845 8.75846 5.65845H10.4316C10.7441 5.65845 10.9329 5.84074 10.9329 6.15324V6.32902C10.9329 6.64152 10.7441 6.82381 10.4316 6.82381H10.1842V11.3811H10.4316C10.7441 11.3811 10.9329 11.5634 10.9329 11.8694V12.0452ZM13.5306 12.54C13.8496 12.54 14.0319 12.3577 14.0319 12.0452V11.8694C14.0319 11.5634 13.8496 11.3811 13.5306 11.3811H13.2832V6.82381H13.5306C13.8496 6.82381 14.0319 6.64152 14.0319 6.32902V6.15324C14.0319 5.84074 13.8496 5.65845 13.5306 5.65845H11.8639C11.5449 5.65845 11.3626 5.84074 11.3626 6.15324V6.32902C11.3626 6.64152 11.5449 6.82381 11.8639 6.82381H12.1178V11.3811H11.8639C11.5449 11.3811 11.3626 11.5634 11.3626 11.8694V12.0452C11.3626 12.3577 11.5449 12.54 11.8639 12.54H13.5306ZM15.1582 13.6663C15.1582 14.0048 14.8783 14.2847 14.5397 14.2847H1.4668C1.12174 14.2847 0.841797 14.0048 0.841797 13.6663C0.841797 13.3212 1.12174 13.0413 1.4668 13.0413H14.5397C14.8783 13.0413 15.1582 13.3212 15.1582 13.6663Z" fill="white"/>
</svg>
